<?xml version="1.0" encoding="UTF-8"?>
<svg id="Capa_1" xmlns="http://www.w3.org/2000/svg" xmlns:xlink="http://www.w3.org/1999/xlink" version="1.1" viewBox="0 0 39.8 24">
  <!-- Generator: Adobe Illustrator 29.2.1, SVG Export Plug-In . SVG Version: 2.1.0 Build 116)  -->
  <defs>
    <style>
      .st0 {
        fill: #f4f3e9;
      }
    </style>
  </defs>
  <path class="st0" d="M12.5,1v5.2c-3.4,0-6.1,2.7-6.1,6.1v10.9H1.1V1.1h5.2v1.7c1.8-1.1,3.9-1.8,6.1-1.8Z"/>
  <path class="st0" d="M20.3,23.1v-10.8c0-3.4,2.8-6.1,6.1-6.1h.7c2.4,0,4.4,1.4,5.5,3.3.4.8.6,1.7.7,2.7,0,0,0,0,0,0v5.3c0,0,0,5.5,0,5.5h5.1v-9.5c0-2-.3-3.8-.9-5.4-.2-.5-.4-1-.6-1.4-1-1.9-2.4-3.4-4.2-4.3-1.8-1-3.8-1.5-6-1.5s-3.1.3-4.5.9h0c-.7.3-1.4.6-2,1v-1.7h-5.2v22h5.2Z"/>
</svg>